<?xml version="1.0" standalone="no"?>
<!DOCTYPE svg PUBLIC "-//W3C//DTD SVG 20010904//EN"
 "http://www.w3.org/TR/2001/REC-SVG-20010904/DTD/svg10.dtd">
<svg version="1.0" xmlns="http://www.w3.org/2000/svg"
 width="640.000000pt" height="640.000000pt" viewBox="0 0 640.000000 640.000000"
 preserveAspectRatio="xMidYMid meet">
<metadata>
Created by potrace 1.15, written by Peter Selinger 2001-2017
</metadata>
<g transform="translate(0.000000,640.000000) scale(0.100000,-0.100000)"
fill="#000000" stroke="none">
<path d="M2701 5965 c-485 -126 -890 -415 -1164 -830 -152 -231 -260 -514
-304 -798 -24 -155 -23 -434 1 -582 82 -502 317 -1059 734 -1740 259 -423 654
-969 1012 -1398 240 -288 200 -288 440 0 185 222 461 581 632 823 637 904
1009 1676 1114 2315 24 148 25 427 1 582 -68 439 -269 830 -583 1133 -255 246
-542 406 -888 495 l-137 35 -362 0 -362 -1 -134 -34z m717 -1289 c200 -70 351
-221 419 -420 25 -73 28 -94 28 -216 0 -122 -3 -143 -28 -216 -69 -202 -226
-356 -432 -425 -60 -21 -90 -24 -205 -24 -115 0 -145 3 -205 24 -206 69 -363
223 -432 425 -25 73 -28 94 -28 216 0 115 3 145 24 205 66 198 216 355 400
423 101 36 136 41 266 38 97 -3 134 -9 193 -30z"/>
</g>
</svg>
