<!DOCTYPE svg PUBLIC "-//W3C//DTD SVG 20010904//EN" "http://www.w3.org/TR/2001/REC-SVG-20010904/DTD/svg10.dtd">
<svg version="1.0" xmlns="http://www.w3.org/2000/svg" width="800px" height="800px" viewBox="625 625 6750 6750" preserveAspectRatio="xMidYMid meet">
<g id="layer101" fill="#000" stroke="none">
 <path d="M1167 6729 c-227 -33 -428 -216 -494 -449 -17 -62 -18 -157 -18 -2125 0 -2235 -3 -2102 55 -2230 64 -142 186 -257 335 -318 l80 -32 2843 -3 c3126 -2 2902 -7 3036 58 142 68 259 204 313 362 l28 83 0 2070 c0 1978 -1 2073 -18 2135 -59 208 -212 364 -427 437 -53 17 -161 18 -2865 19 -1545 1 -2836 -2 -2868 -7z m5561 -611 c15 -15 18 -3923 3 -3933 -13 -7 -2709 -7 -2721 0 -11 7 -14 3927 -3 3938 3 4 614 7 1358 7 1037 0 1354 -3 1363 -12z m-4490 -1000 c3 -112 -6 -138 -47 -138 -16 0 -72 -14 -124 -31 -84 -27 -139 -54 -274 -134 l-31 -19 -76 68 c-42 37 -76 76 -76 86 0 47 247 185 423 235 101 29 123 33 167 31 l35 -1 3 -97z m406 77 c408 -95 747 -400 883 -795 93 -269 95 -506 6 -785 -105 -333 -370 -618 -699 -753 -89 -37 -215 -70 -279 -74 l-50 -3 0 114 0 114 103 27 c186 50 335 136 465 266 139 142 216 286 269 504 21 89 16 317 -10 418 -95 370 -367 640 -739 735 l-88 22 -3 113 -3 112 40 0 c22 0 69 -7 105 -15z m-1147 -507 c40 -40 73 -79 73 -86 0 -7 -20 -46 -44 -86 -55 -91 -89 -170 -116 -272 -11 -44 -23 -87 -26 -96 -5 -16 -19 -18 -114 -18 -85 0 -109 3 -113 15 -15 38 39 242 98 372 42 90 140 243 157 243 7 0 45 -33 85 -72z m1065 -625 c192 -192 348 -355 348 -363 0 -19 -90 -110 -110 -110 -8 0 -143 128 -300 285 -157 157 -292 285 -300 285 -8 0 -67 -52 -130 -115 -63 -63 -121 -115 -128 -115 -21 0 -66 35 -97 76 l-28 36 184 184 c101 101 191 184 199 184 8 0 171 -156 362 -347z m-1177 -220 c23 -106 83 -263 131 -343 30 -49 54 -95 54 -102 0 -23 -147 -161 -163 -155 -41 15 -160 233 -206 376 -32 95 -56 225 -46 241 4 6 51 10 115 10 l110 0 5 -27z m466 -680 c84 -54 204 -104 307 -129 85 -20 84 -19 80 -149 l-3 -90 -38 -3 c-48 -4 -153 19 -258 58 -145 53 -329 164 -329 198 0 19 138 162 157 162 7 0 45 -21 84 -47z"/>
 <path d="M4320 5210 c-12 -8 -16 -44 -18 -202 -2 -117 1 -204 7 -221 l11 -27 1052 2 1053 3 3 221 2 222 -22 6 c-39 10 -2072 7 -2088 -4z"/>
 <path d="M4320 4450 c-12 -8 -16 -45 -18 -209 -2 -132 1 -207 8 -221 11 -20 12 -20 1063 -18 l1052 3 3 219 c2 169 -1 221 -10 228 -19 11 -2080 10 -2098 -2z"/>
 <path d="M4320 3690 c-12 -8 -16 -44 -18 -202 -2 -117 1 -204 7 -221 l11 -27 1052 2 1053 3 3 221 2 222 -22 6 c-39 10 -2072 7 -2088 -4z"/>
 </g>

</svg>