<?xml version="1.0" standalone="no"?>
<!DOCTYPE svg PUBLIC "-//W3C//DTD SVG 20010904//EN"
 "http://www.w3.org/TR/2001/REC-SVG-20010904/DTD/svg10.dtd">
<svg version="1.0" xmlns="http://www.w3.org/2000/svg"
 width="640.000000pt" height="640.000000pt" viewBox="0 0 640.000000 640.000000"
 preserveAspectRatio="xMidYMid meet">
<metadata>
Created by potrace 1.15, written by Peter Selinger 2001-2017
</metadata>
<g transform="translate(0.000000,640.000000) scale(0.100000,-0.100000)"
fill="#000000" stroke="none">
<path d="M2863 6054 c-1051 -127 -1954 -825 -2338 -1806 -135 -347 -195 -670
-195 -1053 0 -302 36 -559 116 -821 335 -1109 1272 -1895 2419 -2029 169 -20
501 -20 670 0 638 75 1225 354 1688 804 231 225 393 443 538 725 220 427 319
838 319 1321 0 302 -36 559 -116 821 -336 1111 -1282 1905 -2430 2039 -159 19
-514 18 -671 -1z m2075 -1106 c141 -142 203 -218 311 -378 70 -105 211 -364
211 -389 0 -7 -49 -11 -132 -13 l-133 -3 -7 -45 c-3 -25 -7 -573 -7 -1218 l-1
-1174 -45 -57 c-62 -81 -175 -203 -270 -291 -77 -71 -282 -230 -297 -230 -5 0
-8 184 -8 409 l0 408 228 5 c387 8 387 9 -3 398 l-225 225 -1 740 c0 407 -4
760 -7 785 l-7 45 -215 6 c-243 7 -357 17 -366 30 -3 6 7 27 22 47 42 55 806
822 819 822 6 0 66 -55 133 -122z m-2173 -88 l141 -139 -608 -608 -608 -608
-317 317 -318 318 140 140 140 140 175 -175 175 -175 465 465 c256 256 467
465 470 465 2 0 68 -63 145 -140z m846 -1087 c424 -427 486 -494 475 -512 -9
-13 -123 -23 -366 -30 l-215 -6 -7 -45 c-3 -25 -7 -173 -7 -330 l-1 -285 -212
-212 -211 -213 -99 100 -98 100 -1 398 c0 218 -4 417 -7 442 l-7 45 -215 6
c-243 7 -357 17 -366 30 -3 6 7 27 22 47 32 42 874 892 884 892 4 0 198 -192
431 -427z m860 -1190 c424 -427 486 -494 475 -512 -9 -13 -123 -23 -366 -30
l-215 -6 -7 -45 c-3 -25 -7 -253 -7 -508 l-1 -463 -112 -54 c-133 -63 -253
-106 -400 -145 l-108 -28 -1 576 c0 317 -4 597 -7 622 l-7 45 -215 6 c-243 7
-357 17 -366 30 -3 6 7 27 22 47 32 42 874 892 884 892 4 0 198 -192 431 -427z
m-1710 -230 c424 -427 486 -494 475 -512 -9 -13 -123 -23 -366 -30 l-215 -6
-7 -45 c-4 -25 -4 -251 -1 -503 3 -251 3 -457 -1 -457 -4 0 -43 9 -85 20 -127
32 -277 88 -413 152 l-128 61 -1 341 c0 188 -4 361 -7 386 l-7 45 -215 6
c-243 7 -357 17 -366 30 -3 6 7 27 22 47 32 42 874 892 884 892 4 0 198 -192
431 -427z m729 -992 l0 -608 -59 -7 c-120 -14 -454 -8 -538 10 l-23 4 0 495 0
495 163 0 c178 0 294 13 316 34 22 23 6 60 -55 126 l-56 60 126 0 126 0 0
-609z"/>
</g>
</svg>
