<svg id="svg" version="1.1" xmlns="http://www.w3.org/2000/svg" xmlns:xlink="http://www.w3.org/1999/xlink" width="400" height="400" viewBox="50 50 300 300">
<g id="svgg"><path id="path0" d="M131.000 83.850 C 79.996 91.342,53.213 140.248,73.039 189.688 C 83.486 215.738,105.048 241.559,154.200 286.879 C 173.211 304.408,199.799 328.400,200.102 328.299 C 200.285 328.238,203.398 325.511,207.018 322.238 L 213.600 316.288 213.600 275.744 L 213.600 235.200 201.620 235.200 C 187.218 235.200,186.137 235.035,183.551 232.449 C 180.795 229.694,180.800 229.749,180.800 203.600 C 180.800 170.131,179.568 172.000,201.620 172.000 L 213.600 172.000 213.600 155.029 C 213.600 137.489,213.369 133.933,211.927 129.251 C 205.741 109.164,181.301 90.495,153.651 84.734 C 149.916 83.956,134.400 83.351,131.000 83.850 M252.582 134.582 L 251.600 135.564 251.600 162.582 L 251.600 189.600 224.582 189.600 L 197.564 189.600 196.582 190.582 L 195.600 191.564 195.600 203.600 L 195.600 215.636 196.582 216.618 L 197.564 217.600 224.582 217.600 L 251.600 217.600 251.600 244.618 L 251.600 271.636 252.582 272.618 L 253.564 273.600 265.600 273.600 L 277.636 273.600 278.618 272.618 L 279.600 271.636 279.600 244.618 L 279.600 217.600 306.618 217.600 L 333.636 217.600 334.618 216.618 L 335.600 215.636 335.600 203.600 L 335.600 191.564 334.618 190.582 L 333.636 189.600 306.618 189.600 L 279.600 189.600 279.600 162.582 L 279.600 135.564 278.618 134.582 L 277.636 133.600 265.600 133.600 L 253.564 133.600 252.582 134.582 " stroke="none" fill="#000000" fill-rule="evenodd"></path></g>
</svg>