<svg id="svg" xmlns="http://www.w3.org/2000/svg" xmlns:xlink="http://www.w3.org/1999/xlink" width="400" height="400" viewBox="0, 0, 400,400"><g id="svgg"><path id="path0" d="M63.000 81.762 C 62.340 82.062,60.720 82.537,59.400 82.819 C 58.080 83.101,56.730 83.550,56.400 83.817 C 56.070 84.083,55.125 84.540,54.300 84.831 C 53.475 85.122,52.800 85.502,52.800 85.675 C 52.800 85.848,52.215 86.237,51.500 86.539 C 50.141 87.113,43.720 93.519,42.757 95.262 C 40.002 100.245,38.751 103.462,38.390 106.491 C 38.199 108.091,37.864 110.300,37.646 111.400 C 37.114 114.070,37.098 300.214,37.629 303.000 C 37.838 304.100,38.187 306.170,38.403 307.600 C 39.023 311.692,39.291 312.985,39.566 313.200 C 39.707 313.310,40.170 314.210,40.595 315.200 C 43.542 322.064,52.674 330.315,58.545 331.416 C 59.345 331.566,60.000 331.818,60.000 331.975 C 60.000 333.144,66.454 333.200,200.126 333.200 C 337.031 333.200,337.507 333.195,340.660 331.770 C 341.354 331.456,342.122 331.200,342.368 331.200 C 342.614 331.200,343.756 330.717,344.907 330.127 C 354.109 325.411,361.600 315.066,361.600 307.074 C 361.600 306.131,361.825 305.135,362.100 304.860 C 362.807 304.153,362.837 111.006,362.130 109.561 C 361.872 109.032,361.574 107.478,361.468 106.106 C 361.363 104.734,360.921 102.844,360.486 101.906 C 360.051 100.968,359.359 99.346,358.948 98.301 C 358.536 97.257,358.073 96.402,357.919 96.401 C 357.764 96.401,357.351 95.796,357.001 95.059 C 356.226 93.425,350.015 87.168,348.570 86.565 C 347.997 86.326,347.409 85.966,347.264 85.765 C 346.622 84.876,340.480 82.400,338.917 82.400 C 338.463 82.400,337.576 82.131,336.946 81.802 C 335.295 80.942,64.897 80.902,63.000 81.762 M328.301 206.900 L 328.402 298.800 265.401 298.800 L 202.400 298.800 202.400 206.799 L 202.400 114.798 265.300 114.899 L 328.200 115.000 328.301 206.900 M113.116 147.696 C 113.013 150.636,112.914 151.005,112.200 151.116 C 111.760 151.185,111.040 151.401,110.600 151.596 C 110.160 151.791,108.720 152.242,107.400 152.598 C 106.080 152.954,104.237 153.595,103.304 154.023 C 102.372 154.450,101.469 154.800,101.297 154.800 C 101.126 154.800,100.323 155.250,99.514 155.800 C 98.705 156.350,97.851 156.800,97.618 156.800 C 97.384 156.800,96.448 157.340,95.537 158.000 C 94.625 158.660,93.763 159.200,93.619 159.200 C 93.358 159.200,89.200 155.245,89.200 154.997 C 89.200 154.466,89.761 153.600,90.105 153.600 C 90.336 153.600,91.093 153.166,91.788 152.637 C 92.482 152.107,93.669 151.383,94.425 151.029 C 95.181 150.675,96.250 150.129,96.800 149.814 C 99.131 148.481,104.598 146.400,105.768 146.400 C 106.065 146.400,106.824 146.131,107.454 145.802 C 108.084 145.474,109.264 145.204,110.076 145.202 C 110.888 145.201,111.664 145.020,111.800 144.800 C 112.701 143.343,113.229 144.504,113.116 147.696 M135.380 145.228 C 136.689 145.438,137.859 145.754,137.980 145.930 C 138.101 146.106,139.280 146.578,140.600 146.980 C 141.920 147.382,143.184 147.854,143.410 148.029 C 143.635 148.205,144.694 148.645,145.763 149.008 C 146.832 149.371,148.076 150.013,148.529 150.434 C 148.981 150.855,149.542 151.203,149.775 151.207 C 150.009 151.211,151.010 151.754,152.000 152.413 C 152.990 153.072,154.145 153.834,154.567 154.106 C 157.945 156.283,165.823 164.076,166.895 166.300 C 167.133 166.795,167.454 167.200,167.607 167.200 C 168.079 167.200,171.757 173.569,173.639 177.643 C 175.263 181.160,176.895 187.177,177.587 192.200 C 177.769 193.520,178.153 195.815,178.440 197.300 C 178.870 199.521,178.870 200.479,178.440 202.700 C 178.153 204.185,177.767 206.480,177.582 207.800 C 176.801 213.389,175.208 219.248,173.619 222.375 C 171.479 226.589,170.592 228.154,168.981 230.565 C 168.111 231.866,167.178 233.325,166.906 233.807 C 166.222 235.021,156.783 244.406,155.800 244.849 C 155.360 245.047,154.010 245.932,152.800 246.815 C 151.590 247.698,149.250 249.054,147.600 249.828 C 145.950 250.602,144.260 251.424,143.845 251.656 C 143.429 251.887,142.169 252.347,141.045 252.679 C 139.920 253.010,138.820 253.417,138.600 253.583 C 138.019 254.021,136.481 254.439,134.200 254.781 C 133.100 254.945,131.885 255.216,131.500 255.383 C 130.864 255.658,130.800 255.372,130.800 252.282 L 130.800 248.879 133.200 248.600 C 134.520 248.447,135.600 248.167,135.600 247.979 C 135.600 247.790,136.275 247.512,137.100 247.360 C 137.925 247.209,139.500 246.683,140.600 246.192 C 141.700 245.701,143.275 245.083,144.100 244.819 C 144.925 244.554,145.600 244.172,145.600 243.969 C 145.600 243.766,145.799 243.600,146.042 243.600 C 146.285 243.600,147.284 243.060,148.262 242.400 C 149.240 241.740,150.201 241.200,150.397 241.200 C 150.594 241.200,150.990 240.877,151.277 240.482 C 151.565 240.087,152.470 239.355,153.289 238.856 C 155.138 237.729,161.931 230.577,163.107 228.520 C 163.584 227.684,164.377 226.235,164.867 225.300 C 165.358 224.365,165.885 223.600,166.040 223.600 C 166.194 223.600,166.643 222.700,167.039 221.600 C 167.434 220.500,167.882 219.600,168.034 219.600 C 168.185 219.600,168.404 219.105,168.520 218.500 C 168.892 216.563,169.723 213.806,169.998 213.600 C 171.902 212.172,171.861 186.400,169.955 186.400 C 169.760 186.400,169.600 186.061,169.600 185.646 C 169.600 184.791,168.361 180.705,168.009 180.400 C 167.882 180.290,167.426 179.390,166.996 178.400 C 166.566 177.410,165.986 176.362,165.707 176.071 C 165.428 175.781,165.200 175.359,165.200 175.133 C 165.200 174.908,164.795 174.158,164.300 173.467 C 163.805 172.777,163.190 171.812,162.934 171.325 C 161.894 169.348,153.198 160.400,152.317 160.400 C 152.028 160.400,151.579 160.058,151.318 159.640 C 150.816 158.837,150.744 158.793,144.800 155.705 C 141.067 153.766,136.348 152.000,134.896 152.000 C 134.491 152.000,133.989 151.834,133.780 151.631 C 133.571 151.428,132.860 151.203,132.200 151.131 L 131.000 151.000 130.883 147.650 L 130.766 144.300 131.883 144.572 C 132.497 144.722,134.071 145.017,135.380 145.228 M212.962 162.041 C 212.258 162.818,212.191 163.726,212.077 173.956 C 211.949 185.526,212.127 187.099,213.605 187.485 C 214.042 187.600,214.400 187.852,214.400 188.047 C 214.400 188.249,236.138 188.400,265.358 188.400 L 316.315 188.400 317.558 187.240 L 318.800 186.079 318.800 174.455 C 318.800 163.012,318.786 162.818,317.925 162.016 C 317.053 161.204,316.825 161.200,265.387 161.200 L 213.724 161.200 212.962 162.041 M78.439 168.539 C 81.549 171.597,81.467 171.324,79.920 173.483 C 77.878 176.333,75.209 182.187,74.396 185.600 C 74.160 186.590,73.802 187.760,73.600 188.200 C 73.398 188.640,73.181 189.450,73.117 190.000 C 73.004 190.967,72.889 191.004,69.649 191.117 C 66.321 191.233,66.300 191.228,66.568 190.317 C 66.717 189.813,66.976 188.500,67.145 187.400 C 67.313 186.300,67.652 185.040,67.897 184.600 C 68.142 184.160,68.639 182.810,69.002 181.600 C 69.631 179.503,71.244 175.682,72.042 174.400 C 72.248 174.070,72.680 173.227,73.003 172.526 C 73.589 171.253,75.214 168.644,76.010 167.700 C 76.634 166.960,76.941 167.066,78.439 168.539 M129.317 201.129 L 113.719 216.727 106.402 209.402 C 99.289 202.281,98.219 200.800,100.187 200.800 C 100.524 200.800,100.800 200.530,100.800 200.200 C 100.800 199.054,101.529 199.629,106.891 205.000 C 114.531 212.653,112.192 213.525,128.934 196.783 L 142.551 183.166 143.733 184.348 L 144.915 185.531 129.317 201.129 M213.822 198.184 C 212.096 198.945,212.059 199.215,212.028 211.126 C 211.999 222.417,212.149 223.600,213.614 223.600 C 214.046 223.600,214.400 223.780,214.400 224.000 C 214.400 224.265,231.672 224.400,265.416 224.400 L 316.432 224.400 317.616 223.525 L 318.800 222.650 318.795 211.425 C 318.788 198.170,318.861 198.611,316.586 198.038 C 313.856 197.351,215.395 197.491,213.822 198.184 M73.258 210.200 C 74.955 217.243,77.332 222.875,80.484 227.314 C 81.381 228.578,81.330 228.690,78.667 231.298 C 76.881 233.049,76.767 233.076,75.988 231.944 C 75.665 231.474,75.031 230.619,74.580 230.044 C 73.329 228.452,69.791 220.902,69.030 218.200 C 68.658 216.880,68.150 215.440,67.902 215.000 C 67.654 214.560,67.322 213.300,67.163 212.200 C 67.005 211.100,66.746 209.877,66.588 209.483 C 66.324 208.823,66.566 208.775,69.635 208.883 L 72.969 209.000 73.258 210.200 M213.600 234.225 C 212.147 235.020,212.084 235.549,212.040 247.320 C 211.998 258.535,212.185 259.925,213.818 260.552 C 214.174 260.688,237.530 260.800,265.720 260.800 L 316.975 260.800 317.887 259.738 C 318.790 258.687,318.800 258.557,318.795 247.638 C 318.788 235.086,318.787 235.075,317.000 234.227 C 315.135 233.342,215.218 233.341,213.600 234.225 M95.600 242.400 C 96.590 243.052,97.614 243.766,97.877 243.987 C 98.139 244.207,99.129 244.693,100.077 245.066 C 101.024 245.440,101.890 245.859,102.000 245.997 C 102.110 246.136,103.280 246.578,104.600 246.980 C 105.920 247.382,107.180 247.842,107.400 248.003 C 107.620 248.164,109.015 248.532,110.500 248.821 L 113.200 249.347 113.200 252.526 L 113.200 255.705 111.700 255.417 C 107.758 254.663,106.768 254.400,103.600 253.272 C 99.250 251.722,95.935 250.057,92.135 247.514 C 91.219 246.901,90.293 246.400,90.077 246.400 C 88.727 246.400,89.279 244.883,91.274 243.113 C 93.799 240.871,93.383 240.940,95.600 242.400 " stroke="none" fill-rule="evenodd"></path><path id="path1" d="" stroke="none" fill-rule="evenodd"></path><path id="path2" d="" stroke="none" fill-rule="evenodd"></path><path id="path3" d="" stroke="none" fill-rule="evenodd"></path><path id="path4" d="" stroke="none" fill-rule="evenodd"></path></g></svg>